<svg width="22" height="22" viewBox="0 0 22 22" fill="none" xmlns="http://www.w3.org/2000/svg">
<path d="M0.75619 6.56232C0.855494 6.56232 0.953826 6.54276 1.04557 6.50476C1.13732 6.46675 1.22068 6.41105 1.2909 6.34083C1.36112 6.27062 1.41682 6.18725 1.45482 6.09551C1.49282 6.00376 1.51238 5.90543 1.51238 5.80613V2.58193L6.38275 7.45129C6.4529 7.52159 6.53625 7.57734 6.628 7.61533C6.71976 7.65333 6.81811 7.67283 6.91743 7.67271C7.11101 7.67271 7.30459 7.5989 7.4522 7.45119C7.52243 7.38098 7.57814 7.29762 7.61614 7.20588C7.65414 7.11413 7.6737 7.0158 7.67369 6.9165C7.67368 6.81719 7.65411 6.71886 7.61608 6.62712C7.57806 6.53539 7.52234 6.45204 7.4521 6.38184L2.58153 1.51238H5.80643C6.00698 1.51238 6.19932 1.43271 6.34114 1.2909C6.48295 1.14908 6.56262 0.956744 6.56262 0.75619C6.56262 0.555636 6.48295 0.363296 6.34114 0.221483C6.19932 0.0796698 6.00698 2.98849e-09 5.80643 0H0.75619C0.555636 0 0.363296 0.0796698 0.221483 0.221483C0.0796698 0.363296 0 0.555636 0 0.75619L0 5.80623C2.67382e-05 6.00676 0.0797083 6.19908 0.221519 6.34087C0.363329 6.48266 0.555653 6.56232 0.75619 6.56232ZM20.9565 15.15C20.756 15.15 20.5637 15.2297 20.4218 15.3715C20.28 15.5133 20.2004 15.7056 20.2004 15.9062V19.1305L15.1801 14.1102C15.038 13.9694 14.846 13.8906 14.6461 13.891C14.4461 13.8915 14.2544 13.9711 14.113 14.1125C13.9716 14.2539 13.8919 14.4455 13.8915 14.6455C13.891 14.8455 13.9698 15.0375 14.1106 15.1796L19.1308 20.1997H15.9067C15.7062 20.1997 15.5138 20.2794 15.372 20.4212C15.2302 20.563 15.1505 20.7554 15.1505 20.9559C15.1505 21.1565 15.2302 21.3488 15.372 21.4906C15.5138 21.6325 15.7062 21.7121 15.9067 21.7121H20.9566C21.1572 21.7121 21.3495 21.6325 21.4914 21.4906C21.6332 21.3488 21.7128 21.1565 21.7128 20.9559V15.9062C21.7128 15.7056 21.6331 15.5133 21.4913 15.3715C21.3494 15.2297 21.1571 15.15 20.9565 15.15ZM6.53268 14.1102L1.51288 19.1304V15.9062C1.51288 15.4886 1.17441 15.15 0.756694 15.15C0.338975 15.15 0.000504127 15.4886 0.000504127 15.9062V20.9561C0.000504127 21.1567 0.0801739 21.349 0.221987 21.4908C0.3638 21.6327 0.55614 21.7123 0.756694 21.7123H5.80643C6.00698 21.7123 6.19932 21.6327 6.34114 21.4908C6.48295 21.349 6.56262 21.1567 6.56262 20.9561C6.56262 20.7556 6.48295 20.5632 6.34114 20.4214C6.19932 20.2796 6.00698 20.2 5.80643 20.2H2.58224L7.60213 15.1796C7.67285 15.1094 7.72903 15.0261 7.76743 14.9342C7.80584 14.8423 7.82572 14.7437 7.82593 14.6442C7.82615 14.5446 7.80669 14.4459 7.76867 14.3539C7.73066 14.2618 7.67485 14.1782 7.60443 14.1078C7.53401 14.0374 7.45037 13.9816 7.35833 13.9436C7.26628 13.9056 7.16763 13.8861 7.06805 13.8863C6.96847 13.8866 6.86991 13.9065 6.77804 13.9449C6.68616 13.9833 6.60278 14.0395 6.53268 14.1102ZM20.9565 0H15.9066C15.7061 0 15.5137 0.0796698 15.3719 0.221483C15.2301 0.363296 15.1504 0.555636 15.1504 0.75619C15.1504 0.956744 15.2301 1.14908 15.3719 1.2909C15.5137 1.43271 15.7061 1.51238 15.9066 1.51238H19.1309L14.2612 6.38234C14.1555 6.4881 14.0835 6.62285 14.0543 6.76954C14.0251 6.91622 14.0401 7.06827 14.0974 7.20644C14.1546 7.34461 14.2515 7.46271 14.3759 7.54579C14.5003 7.62888 14.6465 7.67322 14.796 7.67321C14.8954 7.67332 14.9937 7.6538 15.0855 7.61579C15.1773 7.57777 15.2606 7.52201 15.3308 7.4517L20.2005 2.58173V5.80613C20.2005 5.90543 20.22 6.00376 20.258 6.09551C20.296 6.18725 20.3517 6.27062 20.4219 6.34083C20.4922 6.41105 20.5755 6.46675 20.6673 6.50476C20.759 6.54276 20.8573 6.56232 20.9566 6.56232C21.056 6.56232 21.1543 6.54276 21.246 6.50476C21.3378 6.46675 21.4211 6.41105 21.4914 6.34083C21.5616 6.27062 21.6173 6.18725 21.6553 6.09551C21.6933 6.00376 21.7128 5.90543 21.7128 5.80613V0.75619C21.7128 0.555627 21.6331 0.363287 21.4913 0.221477C21.3495 0.0796665 21.1571 -1.78231e-09 20.9565 0Z" fill="black"/>
</svg>
