<svg width="16" height="16" viewBox="0 0 16 16" fill="none" xmlns="http://www.w3.org/2000/svg">
<path d="M0.5 1.90625C0.5 2.27921 0.648158 2.6369 0.911881 2.90062C1.1756 3.16434 1.53329 3.3125 1.90625 3.3125C2.27921 3.3125 2.6369 3.16434 2.90062 2.90062C3.16434 2.6369 3.3125 2.27921 3.3125 1.90625C3.3125 1.53329 3.16434 1.1756 2.90062 0.911881C2.6369 0.648158 2.27921 0.5 1.90625 0.5C1.53329 0.5 1.1756 0.648158 0.911881 0.911881C0.648158 1.1756 0.5 1.53329 0.5 1.90625Z" stroke="#808080"/>
<path d="M0.5 13.1562C0.5 13.5292 0.648158 13.8869 0.911881 14.1506C1.1756 14.4143 1.53329 14.5625 1.90625 14.5625C2.27921 14.5625 2.6369 14.4143 2.90062 14.1506C3.16434 13.8869 3.3125 13.5292 3.3125 13.1562C3.3125 12.7833 3.16434 12.4256 2.90062 12.1619C2.6369 11.8982 2.27921 11.75 1.90625 11.75C1.53329 11.75 1.1756 11.8982 0.911881 12.1619C0.648158 12.4256 0.5 12.7833 0.5 13.1562Z" stroke="#808080"/>
<path d="M11.75 1.90625C11.75 2.27921 11.8982 2.6369 12.1619 2.90062C12.4256 3.16434 12.7833 3.3125 13.1562 3.3125C13.5292 3.3125 13.8869 3.16434 14.1506 2.90062C14.4143 2.6369 14.5625 2.27921 14.5625 1.90625C14.5625 1.53329 14.4143 1.1756 14.1506 0.911881C13.8869 0.648158 13.5292 0.5 13.1562 0.5C12.7833 0.5 12.4256 0.648158 12.1619 0.911881C11.8982 1.1756 11.75 1.53329 11.75 1.90625Z" stroke="#808080"/>
<path d="M11.75 13.1562C11.75 13.5292 11.8982 13.8869 12.1619 14.1506C12.4256 14.4143 12.7833 14.5625 13.1562 14.5625C13.5292 14.5625 13.8869 14.4143 14.1506 14.1506C14.4143 13.8869 14.5625 13.5292 14.5625 13.1562C14.5625 12.7833 14.4143 12.4256 14.1506 12.1619C13.8869 11.8982 13.5292 11.75 13.1562 11.75C12.7833 11.75 12.4256 11.8982 12.1619 12.1619C11.8982 12.4256 11.75 12.7833 11.75 13.1562Z" stroke="#808080"/>
<path d="M1.90625 3.3125V11.75" stroke="#808080"/>
<path d="M11.75 1.90625H3.3125" stroke="#808080"/>
<path d="M13.1562 3.3125V11.75" stroke="#808080"/>
<path d="M11.75 13.1562H3.3125" stroke="#808080"/>
</svg>
