<svg width="23" height="25" viewBox="0 0 23 25" fill="none" xmlns="http://www.w3.org/2000/svg">
<path d="M22.5004 5.44751H17.5527V0.499992" stroke="white" stroke-miterlimit="10"/>
<path d="M4.13236 7.87769H3.17578V6.09726H4.13236C4.62406 6.09726 5.02265 6.49579 5.02265 6.98747C5.02265 7.47916 4.62406 7.87769 4.13236 7.87769Z" stroke="white" stroke-miterlimit="10"/>
<path d="M3.17578 7.87771V9.94238" stroke="white" stroke-miterlimit="10"/>
<path d="M7.57626 9.45557H6.72656V6.09719H7.57626C8.38136 6.09719 9.03398 6.74984 9.03398 7.55487V7.99789C9.03398 8.80292 8.38136 9.45557 7.57626 9.45557Z" stroke="white" stroke-miterlimit="10"/>
<path d="M10.7402 9.94238V6.09729H12.4438" stroke="white" stroke-miterlimit="10"/>
<path d="M10.7402 7.80078H12.4438" stroke="white" stroke-miterlimit="10"/>
<path d="M14.6324 12.1326H0.5V3.42026H14.6324V12.1326Z" stroke="white" stroke-miterlimit="10"/>
<path d="M14.4203 23.5852L18.4421 19.0037H16.2455V15.053H12.595V19.0037H10.3984L14.4203 23.5852Z" stroke="white" stroke-miterlimit="10"/>
<path d="M12.8259 21.7698H6.33984V12.1327" stroke="white" stroke-miterlimit="10"/>
<path d="M6.33984 3.4204V0.500073H17.5518L22.4995 5.44759V21.7698H16.0134" stroke="white" stroke-miterlimit="10"/>
</svg>
