<svg xmlns="http://www.w3.org/2000/svg">
    <symbol id="house" viewBox="0 0 14 14" xmlns="http://www.w3.org/2000/svg">
        <path fill-rule="evenodd" clip-rule="evenodd" d="M0.00516797 6.68141C0.00516184 6.49518 0.043195 6.31091 0.116935 6.1399C0.190676 5.96889 0.298569 5.81475 0.434 5.68692L6.06473 0.372933C6.59129 -0.123985 7.41388 -0.123985 7.94043 0.372933L13.5712 5.68692C13.7066 5.81475 13.8145 5.96889 13.8882 6.1399C13.962 6.31091 14 6.49518 14 6.68141L13.9948 12.633C13.9948 13.3881 13.383 14.0002 12.6282 14.0002H8.74677V10.1721C8.74677 9.71905 8.37963 9.35177 7.92676 9.35177H6.06807C5.6152 9.35177 5.24806 9.71905 5.24806 10.1721V14.0002H1.3667C0.611871 14.0002 0 13.3881 0 12.633L0.00516797 6.68141Z" fill="currentColor" />
    </symbol>

    <symbol id="phone" viewBox="0 0 12 12" xmlns="http://www.w3.org/2000/svg">
        <path d="M11.3 12C9.91111 12 8.53889 11.6972 7.18333 11.0917C5.82778 10.4861 4.59444 9.62778 3.48333 8.51667C2.37222 7.40556 1.51389 6.17222 0.908333 4.81667C0.302778 3.46111 0 2.08889 0 0.7C0 0.5 0.0666667 0.333333 0.2 0.2C0.333333 0.0666667 0.5 0 0.7 0H3.4C3.55556 0 3.69444 0.0527778 3.81667 0.158333C3.93889 0.263889 4.01111 0.388889 4.03333 0.533333L4.46667 2.86667C4.48889 3.04444 4.48333 3.19444 4.45 3.31667C4.41667 3.43889 4.35556 3.54444 4.26667 3.63333L2.65 5.26667C2.87222 5.67778 3.13611 6.075 3.44167 6.45833C3.74722 6.84167 4.08333 7.21111 4.45 7.56667C4.79444 7.91111 5.15556 8.23056 5.53333 8.525C5.91111 8.81944 6.31111 9.08889 6.73333 9.33333L8.3 7.76667C8.4 7.66667 8.53056 7.59167 8.69167 7.54167C8.85278 7.49167 9.01111 7.47778 9.16667 7.5L11.4667 7.96667C11.6222 8.01111 11.75 8.09167 11.85 8.20833C11.95 8.325 12 8.45556 12 8.6V11.3C12 11.5 11.9333 11.6667 11.8 11.8C11.6667 11.9333 11.5 12 11.3 12Z" fill="currentColor"/>
    </symbol>
    
    <symbol id="clock" viewBox="0 0 16 16" xmlns="http://www.w3.org/2000/svg">
        <path d="M8 0C3.58888 0 0 3.58888 0 8C0 12.4111 3.58888 16 8 16C12.4111 16 16 12.4111 16 8C16 3.58888 12.4111 0 8 0ZM8 15C4.14013 15 1 11.8599 1 8C1 4.14013 4.14013 1 8 1C11.8599 1 15 4.14013 15 8C15 11.8599 11.8599 15 8 15Z" fill="currentColor"/>
        <path d="M8 15C4.14013 15 1 11.8599 1 8C1 4.14013 4.14013 1 8 1C11.8599 1 15 4.14013 15 8C15 11.8599 11.8599 15 8 15Z" fill="currentColor"/>
        <path d="M8.5 3H7.5V8.20702L10.6465 11.3535L11.3535 10.6465L8.5 7.79295V3Z" fill="white"/>
    </symbol>

    <symbol id="stick" viewBox="0 0 12 13" xmlns="http://www.w3.org/2000/svg">
        <path d="M3.69693 8.51941C1.82236 8.80394 0.5 9.49312 0.5 10.2982C0.5 11.3575 2.7901 12.2163 5.61509 12.2163C8.44005 12.2163 10.7302 11.3575 10.7302 10.2982C10.7302 9.49312 9.40783 8.80394 7.53322 8.51941" stroke="currentColor"/>
        <path d="M5.61511 10.1233V5.31165" stroke="currentColor"/>
        <path d="M3.20929 2.90581C3.20929 3.22175 3.27152 3.53459 3.39242 3.82648C3.51332 4.11836 3.69054 4.38358 3.91394 4.60698C4.13734 4.83038 4.40255 5.00759 4.69444 5.12849C4.98632 5.2494 5.29917 5.31163 5.6151 5.31163C5.93104 5.31163 6.24388 5.2494 6.53577 5.12849C6.82765 5.00759 7.09287 4.83038 7.31627 4.60698C7.53967 4.38358 7.71688 4.11836 7.83778 3.82648C7.95869 3.53459 8.02091 3.22175 8.02091 2.90581C8.02091 2.26775 7.76745 1.65582 7.31627 1.20465C6.86509 0.753469 6.25316 0.5 5.6151 0.5C4.97704 0.5 4.36511 0.753469 3.91394 1.20465C3.46276 1.65582 3.20929 2.26775 3.20929 2.90581Z" stroke="currentColor"/>
    </symbol>

    <symbol id="room" viewBox="0 0 14 14" xmlns="http://www.w3.org/2000/svg">
        <path d="M13.685 2.75796L7.1225 0.132957C7.04399 0.100863 6.95601 0.100863 6.8775 0.132957L0.315 2.75796C0.254256 2.7824 0.202214 2.82446 0.16557 2.87873C0.128926 2.93299 0.109355 2.99698 0.109375 3.06246V10.9375C0.109375 11.0713 0.19075 11.1921 0.315875 11.242L6.87838 13.867C6.95638 13.8986 7.04362 13.8986 7.12162 13.867L13.6841 11.242C13.745 11.2176 13.7973 11.1756 13.8341 11.1214C13.8709 11.0671 13.8906 11.003 13.8906 10.9375V3.06246C13.8906 2.99688 13.8709 2.93282 13.8341 2.87854C13.7973 2.82427 13.745 2.78227 13.6841 2.75796H13.685ZM13.2344 10.4527L12.1406 10.0152V4.98746C12.1406 4.92188 12.1209 4.85782 12.0841 4.80354C12.0473 4.74927 11.995 4.70727 11.9341 4.68296L8.87162 3.45796C8.82186 3.4381 8.76799 3.43073 8.71473 3.43649C8.66146 3.44225 8.61041 3.46096 8.56604 3.491C8.52167 3.52104 8.48534 3.56148 8.46021 3.6088C8.43508 3.65612 8.42192 3.70888 8.42188 3.76246V8.52771L7.32812 8.09021V0.922207L13.2344 3.28471V10.4527ZM11.4844 9.75271L9.07812 8.79021V4.24721L11.4844 5.20971V9.75271ZM6.67188 0.922207V8.09021L0.765625 10.4527V3.28471L6.67188 0.922207ZM7 13.209L1.32125 10.9375L7 8.66596L12.6788 10.9375L7 13.209Z" fill="currentColor"/>
    </symbol>

    <symbol id="flag" viewBox="0 0 14 14" xmlns="http://www.w3.org/2000/svg">
        <path d="M0.5 0V13.6461" stroke="currentColor"/>
        <path d="M0.5 9.30413H12.4279L9.80417 4.96218L12.4279 0.620239H0.5V9.30413Z" stroke="currentColor"/>
    </symbol>

    <symbol id="money" viewBox="0 0 18 18" xmlns="http://www.w3.org/2000/svg">
        <path d="M6.875 8.29163C6.875 8.85521 7.09888 9.39571 7.4974 9.79423C7.89591 10.1927 8.43641 10.4166 9 10.4166C9.56359 10.4166 10.1041 10.1927 10.5026 9.79423C10.9011 9.39571 11.125 8.85521 11.125 8.29163C11.125 7.72804 10.9011 7.18754 10.5026 6.78902C10.1041 6.39051 9.56359 6.16663 9 6.16663C8.43641 6.16663 7.89591 6.39051 7.4974 6.78902C7.09888 7.18754 6.875 7.72804 6.875 8.29163Z" stroke="currentColor"/>
        <path d="M16.4375 13.9583H1.20837V2.625H16.7917V9.70833" stroke="currentColor"/>
        <path d="M14.3125 16.0834L16.4375 13.9584L14.3125 11.8334" stroke="currentColor"/>
    </symbol>

    <symbol id="sizing" viewBox="0 0 18 18" xmlns="http://www.w3.org/2000/svg">
        <path d="M12.5156 0.5625V3.375" stroke="currentColor"/>
        <path d="M1.96875 0.5625V3.375" stroke="currentColor"/>
        <path d="M1.96875 1.96875H12.5156" stroke="currentColor"/>
        <path d="M14.625 16.0312H17.4375" stroke="currentColor"/>
        <path d="M14.625 5.48438H17.4375" stroke="currentColor"/>
        <path d="M16.0312 5.48438V16.0312" stroke="currentColor"/>
        <path d="M1.96875 16.0312H12.5156V5.48438H1.96875V16.0312Z" stroke="currentColor"/>
    </symbol>

    <symbol id="chevron-left" viewBox="0 0 9 16" xmlns="http://www.w3.org/2000/svg">
        <path d="M7.89493 14.7294L0.707031 7.5415L7.89493 0.353606" stroke="currentColor"/>
    </symbol>

    <symbol id="floor" viewBox="0 0 17 17" xmlns="http://www.w3.org/2000/svg">
        <path d="M16.11 9.23621L4.65371 16.11M4.65371 16.11H0.834961V0.834961H12.2912M4.65371 16.11H16.11V0.834961H12.2912M0.834961 7.70871L12.2912 0.834961M16.11 3.88996L0.834961 13.055" stroke="currentColor" stroke-width="1.67"/>
    </symbol>

</svg>