<svg width="22" height="22" viewBox="0 0 22 22" fill="none" xmlns="http://www.w3.org/2000/svg">
<path d="M1.4079 6.4539C1.4079 6.73225 1.18225 6.9579 0.903902 6.9579C0.625551 6.9579 0.399902 6.73225 0.399902 6.4539V1.3999C0.399902 0.847617 0.847618 0.399902 1.3999 0.399902H6.02024C6.3189 0.399902 6.56101 0.642014 6.56101 0.940675C6.56101 1.23934 6.3189 1.48145 6.02024 1.48145H2.4079C1.85562 1.48145 1.4079 1.92916 1.4079 2.48145V6.4539ZM21.3999 6.4539C21.3999 6.73225 21.1743 6.9579 20.8959 6.9579C20.6176 6.9579 20.3919 6.73225 20.3919 6.4539V2.48145C20.3919 1.92916 19.9442 1.48145 19.3919 1.48145H15.7796C15.4809 1.48145 15.2388 1.23934 15.2388 0.940675C15.2388 0.642014 15.4809 0.399902 15.7796 0.399902H20.3999C20.9522 0.399902 21.3999 0.847618 21.3999 1.3999V6.4539ZM6.56101 20.8591C6.56101 21.1578 6.3189 21.3999 6.02024 21.3999H1.3999C0.847618 21.3999 0.399902 20.9522 0.399902 20.3999V15.3459C0.399902 15.0676 0.625551 14.8419 0.903902 14.8419C1.18225 14.8419 1.4079 15.0676 1.4079 15.3459V19.3184C1.4079 19.8706 1.85562 20.3184 2.4079 20.3184H6.02024C6.3189 20.3184 6.56101 20.5605 6.56101 20.8591ZM21.3999 20.3999C21.3999 20.9522 20.9522 21.3999 20.3999 21.3999H15.7796C15.4809 21.3999 15.2388 21.1578 15.2388 20.8591C15.2388 20.5605 15.4809 20.3184 15.7796 20.3184H19.3919C19.9442 20.3184 20.3919 19.8706 20.3919 19.3184V15.3459C20.3919 15.0676 20.6176 14.8419 20.8959 14.8419C21.1743 14.8419 21.3999 15.0676 21.3999 15.3459V20.3999ZM14.0761 12.7917C14.0761 13.344 13.6284 13.7917 13.0761 13.7917H9.16639C8.6141 13.7917 8.16639 13.344 8.16639 12.7917V8.8999C8.16639 8.34762 8.6141 7.8999 9.16639 7.8999H13.0761C13.6284 7.8999 14.0761 8.34762 14.0761 8.8999V12.7917ZM9.17439 11.7102C9.17439 12.2624 9.6221 12.7102 10.1744 12.7102H12.0681C12.6204 12.7102 13.0681 12.2624 13.0681 11.7102V9.98145C13.0681 9.42916 12.6204 8.98145 12.0681 8.98145H10.1744C9.6221 8.98145 9.17439 9.42916 9.17439 9.98145V11.7102Z" fill="black" stroke="black" stroke-width="0.8"/>
</svg>
