<svg width="51" height="40" viewBox="0 0 51 40" fill="none" xmlns="http://www.w3.org/2000/svg">
<path d="M3.87134 33.6715V29.1859H5.20691V31.4287L5.99516 30.7922L8.42239 29.1889H10.2577L7.55383 31.0896L10.3886 33.6745H8.61871L6.51571 31.7529L5.20691 32.6156V33.6745H3.87134V33.6715Z" fill="black"/>
<path d="M15.9911 32.803H12.6774L12.1331 33.6715H10.5298L13.4567 29.1859H15.2325L18.1535 33.6715H16.5354L15.997 32.803H15.9911ZM15.408 31.8749L14.3372 30.1526L13.2574 31.8749H15.408Z" fill="black"/>
<path d="M18.4316 29.1859H22.944C24.0476 29.1859 24.818 29.5815 24.818 30.7832C24.818 32.0534 24.0476 32.5204 22.944 32.5204H19.7672V33.6715H18.4316V29.1859ZM19.7672 30.3311V31.3841H22.7923C23.2207 31.3841 23.4348 31.2384 23.4348 30.8576C23.4348 30.4501 23.2177 30.3311 22.7923 30.3311H19.7672Z" fill="black"/>
<path d="M25.3259 33.6715V29.1859H26.6615V33.6715H25.3259Z" fill="black"/>
<path d="M27.1533 30.3311V29.1859H33.8074V30.3311H31.1511V33.6715H29.8155V30.3311H27.1533Z" fill="black"/>
<path d="M34.3025 33.6715V29.1859H40.2873V30.233H35.6381V30.9766H40.1623V31.8392H35.6381V32.6275H40.2873V33.6715H34.3025Z" fill="black"/>
<path d="M46.7198 32.5263V33.6715H40.9343V29.1859H42.2699V32.5263H46.7228H46.7198Z" fill="black"/>
<path fill-rule="evenodd" clip-rule="evenodd" d="M29.9397 3.06946V19.6109H31.4775V4.08675L29.9397 3.06946Z" fill="#EC0623"/>
<path fill-rule="evenodd" clip-rule="evenodd" d="M26.7856 0.984375V19.611H28.4544V2.08496L26.7856 0.984375Z" fill="#EC0623"/>
<path fill-rule="evenodd" clip-rule="evenodd" d="M25.2986 0L19.1145 4.08703V19.6112H25.2986V0Z" fill="#EC0623"/>
<path fill-rule="evenodd" clip-rule="evenodd" d="M38.78 8.98303V19.6111H40.0026V9.79211L38.78 8.98303Z" fill="#EC0623"/>
<path fill-rule="evenodd" clip-rule="evenodd" d="M41.0955 10.5155V19.6117H42.2228V11.2621L41.0955 10.5155Z" fill="#EC0623"/>
<path fill-rule="evenodd" clip-rule="evenodd" d="M37.6861 8.26074L33.147 11.2621V19.6116H37.6861V8.26074Z" fill="#EC0623"/>
<path fill-rule="evenodd" clip-rule="evenodd" d="M14 8.98303V19.6111H15.2255V9.79211L14 8.98303Z" fill="#EC0623"/>
<path fill-rule="evenodd" clip-rule="evenodd" d="M16.3181 10.5155V19.6117H17.4484V11.2621L16.3181 10.5155Z" fill="#EC0623"/>
<path fill-rule="evenodd" clip-rule="evenodd" d="M12.9073 8.26074L8.36816 11.2621V19.6116H12.9073V8.26074Z" fill="#EC0623"/>
<path fill-rule="evenodd" clip-rule="evenodd" d="M0 21.3867V23.3113L3.75685 24.3285V25.5422C11.0594 25.0633 18.2548 24.8253 25.4502 24.8283C32.2292 24.8521 39.9541 25.09 46.8313 25.5422V24.3285L50.5881 23.3113V21.3867H0Z" fill="#EC0623"/>
</svg>
