<svg width="70" height="70" viewBox="0 0 70 70" fill="none" xmlns="http://www.w3.org/2000/svg">
<path d="M56.7016 59.2735H8.62528C6.05036 59.2735 3.96289 57.1861 3.96289 54.6112M3.96289 54.6112C3.96289 52.0361 6.05036 49.9488 8.62528 49.9488H14.2408V7.80054H9.19727C6.30645 7.80054 3.96289 10.1441 3.96289 13.0349V54.6112Z" stroke="black" stroke-width="3.2" stroke-miterlimit="10"/>
<path d="M67.0371 16.3887V57.965C67.0371 60.8558 64.6935 63.1993 61.8027 63.1993H56.7016V21.0512H62.3746C64.9496 21.0512 67.0371 18.9638 67.0371 16.3887ZM67.0371 16.3887C67.0371 13.8137 64.9496 11.7263 62.3747 11.7263H14.2408M42.6537 22.5738L42.6401 29.9149" stroke="black" stroke-width="3.2" stroke-miterlimit="10"/>
<path d="M35.4975 41.0744V48.4935M45.8306 32.266V48.4769H25.2983V32.1955L35.7523 26.1719L45.8306 32.266Z" stroke="black" stroke-width="3.2" stroke-miterlimit="10"/>
</svg>
