<svg width="70" height="70" viewBox="0 0 70 70" fill="none" xmlns="http://www.w3.org/2000/svg">
<path d="M61.9415 18.8472H49.8238V6.72948" stroke="black" stroke-width="3.2" stroke-miterlimit="10"/>
<path d="M16.958 24.7993H14.6152V20.4386H16.958C18.1623 20.4386 19.1385 21.4147 19.1385 22.619C19.1385 23.8232 18.1623 24.7993 16.958 24.7993Z" stroke="black" stroke-width="2.6" stroke-miterlimit="10"/>
<path d="M14.6152 24.7993V29.8562" stroke="black" stroke-width="2.6" stroke-miterlimit="10"/>
<path d="M25.3917 28.6641H23.3107V20.4386H25.3917C27.3636 20.4386 28.9619 22.0371 28.9619 24.0088V25.0938C28.9619 27.0656 27.3636 28.6641 25.3917 28.6641Z" stroke="black" stroke-width="2.6" stroke-miterlimit="10"/>
<path d="M33.1345 29.8562V20.4386H37.3068" stroke="black" stroke-width="2.6" stroke-miterlimit="10"/>
<path d="M33.1345 24.6111H37.3068" stroke="black" stroke-width="2.6" stroke-miterlimit="10"/>
<path d="M42.6712 35.2207H8.05859V13.8821H42.6712V35.2207Z" stroke="black" stroke-width="3.2" stroke-miterlimit="10"/>
<path d="M42.1526 63.2708L52.0028 52.0496H46.623V42.3733H37.6823V52.0496H32.3024L42.1526 63.2708Z" stroke="black" stroke-width="3.2" stroke-miterlimit="10"/>
<path d="M38.2493 58.8242H22.3638V35.2207" stroke="black" stroke-width="3.2" stroke-miterlimit="10"/>
<path d="M22.3638 13.8821V6.72949H49.8238L61.9415 18.8472V58.8242H46.0559" stroke="black" stroke-width="3.2" stroke-miterlimit="10"/>
</svg>
